<svg version="1.1" xmlns="http://www.w3.org/2000/svg" xmlns:xlink="http://www.w3.org/1999/xlink" width="800" height="800"><defs/><g transform="scale(2,2)"><g id="background-489d7096"><rect fill="white" stroke="none" x="0" y="0" width="400" height="400" class="dcg-svg-background"/></g><g id="background-images-489d7096"/><g id="graphpaper-489d7096"><g id="grid-489d7096"><g><path fill="none" stroke="rgb(0,0,0)" class="dcg-svg-minor-gridline" paint-order="fill stroke markers" d=" M 62.5 0 L 62.5 400" stroke-opacity="0.5" stroke-miterlimit="10" stroke-dasharray=""/><path fill="none" stroke="rgb(0,0,0)" class="dcg-svg-minor-gridline" paint-order="fill stroke markers" d=" M 102.5 0 L 102.5 400" stroke-opacity="0.5" stroke-miterlimit="10" stroke-dasharray=""/><path fill="none" stroke="rgb(0,0,0)" class="dcg-svg-minor-gridline" paint-order="fill stroke markers" d=" M 142.5 0 L 142.5 400" stroke-opacity="0.5" stroke-miterlimit="10" stroke-dasharray=""/><path fill="none" stroke="rgb(0,0,0)" class="dcg-svg-minor-gridline" paint-order="fill stroke markers" d=" M 182.5 0 L 182.5 400" stroke-opacity="0.5" stroke-miterlimit="10" stroke-dasharray=""/><path fill="none" stroke="rgb(0,0,0)" class="dcg-svg-minor-gridline" paint-order="fill stroke markers" d=" M 222.5 0 L 222.5 400" stroke-opacity="0.5" stroke-miterlimit="10" stroke-dasharray=""/><path fill="none" stroke="rgb(0,0,0)" class="dcg-svg-minor-gridline" paint-order="fill stroke markers" d=" M 262.5 0 L 262.5 400" stroke-opacity="0.5" stroke-miterlimit="10" stroke-dasharray=""/><path fill="none" stroke="rgb(0,0,0)" class="dcg-svg-minor-gridline" paint-order="fill stroke markers" d=" M 302.5 0 L 302.5 400" stroke-opacity="0.5" stroke-miterlimit="10" stroke-dasharray=""/><path fill="none" stroke="rgb(0,0,0)" class="dcg-svg-minor-gridline" paint-order="fill stroke markers" d=" M 342.5 0 L 342.5 400" stroke-opacity="0.5" stroke-miterlimit="10" stroke-dasharray=""/><path fill="none" stroke="rgb(0,0,0)" class="dcg-svg-minor-gridline" paint-order="fill stroke markers" d=" M 382.5 0 L 382.5 400" stroke-opacity="0.5" stroke-miterlimit="10" stroke-dasharray=""/><path fill="none" stroke="rgb(0,0,0)" class="dcg-svg-minor-gridline" paint-order="fill stroke markers" d=" M 0 365.5 L 400 365.5" stroke-opacity="0.5" stroke-miterlimit="10" stroke-dasharray=""/><path fill="none" stroke="rgb(0,0,0)" class="dcg-svg-minor-gridline" paint-order="fill stroke markers" d=" M 0 325.5 L 400 325.5" stroke-opacity="0.5" stroke-miterlimit="10" stroke-dasharray=""/><path fill="none" stroke="rgb(0,0,0)" class="dcg-svg-minor-gridline" paint-order="fill stroke markers" d=" M 0 285.5 L 400 285.5" stroke-opacity="0.5" stroke-miterlimit="10" stroke-dasharray=""/><path fill="none" stroke="rgb(0,0,0)" class="dcg-svg-minor-gridline" paint-order="fill stroke markers" d=" M 0 245.5 L 400 245.5" stroke-opacity="0.5" stroke-miterlimit="10" stroke-dasharray=""/><path fill="none" stroke="rgb(0,0,0)" class="dcg-svg-minor-gridline" paint-order="fill stroke markers" d=" M 0 205.5 L 400 205.5" stroke-opacity="0.5" stroke-miterlimit="10" stroke-dasharray=""/><path fill="none" stroke="rgb(0,0,0)" class="dcg-svg-minor-gridline" paint-order="fill stroke markers" d=" M 0 165.5 L 400 165.5" stroke-opacity="0.5" stroke-miterlimit="10" stroke-dasharray=""/><path fill="none" stroke="rgb(0,0,0)" class="dcg-svg-minor-gridline" paint-order="fill stroke markers" d=" M 0 85.5 L 400 85.5" stroke-opacity="0.5" stroke-miterlimit="10" stroke-dasharray=""/><path fill="none" stroke="rgb(0,0,0)" class="dcg-svg-minor-gridline" paint-order="fill stroke markers" d=" M 0 45.5 L 400 45.5" stroke-opacity="0.5" stroke-miterlimit="10" stroke-dasharray=""/><path fill="none" stroke="rgb(0,0,0)" class="dcg-svg-minor-gridline" paint-order="fill stroke markers" d=" M 0 5.5 L 400 5.5" stroke-opacity="0.5" stroke-miterlimit="10" stroke-dasharray=""/><path fill="none" stroke="rgb(0,0,0)" class="dcg-svg-major-gridline" paint-order="fill stroke markers" d=" M 222.5 0 L 222.5 400" stroke-opacity="1" stroke-miterlimit="10" stroke-dasharray=""/><path fill="none" stroke="rgb(0,0,0)" class="dcg-svg-major-gridline" paint-order="fill stroke markers" d=" M 0 325 L 400 325" stroke-opacity="1" stroke-miterlimit="10" stroke-dasharray=""/></g></g><g id="axis-489d7096"><g id="yaxis-489d7096"><title>Y axis</title><path fill="none" stroke="rgb(0,0,0)" class="dcg-svg-axis-line" paint-order="fill stroke markers" d=" M 22 0 L 22 400" stroke-opacity="0.9" stroke-miterlimit="10" stroke-width="2" stroke-dasharray=""/></g><g id="xaxis-489d7096"><title>X axis</title><path fill="none" stroke="rgb(0,0,0)" class="dcg-svg-axis-line" paint-order="fill stroke markers" d=" M 0 125 L 400 125" stroke-opacity="0.9" stroke-miterlimit="10" stroke-width="2" stroke-dasharray=""/></g><g><g class="dcg-svg-axis-value"><text fill="none" stroke="#ffffff" font-family="Arial" font-size="20px" font-style="normal" font-weight="normal" text-decoration="normal" x="11.69518772985193" y="145.79211267605677" text-anchor="middle" stroke-miterlimit="2" stroke-width="3" stroke-dasharray="">0</text><text fill="#000000" stroke="none" font-family="Arial" font-size="20px" font-style="normal" font-weight="normal" text-decoration="normal" x="11.69518772985193" y="145.79211267605677" text-anchor="middle">0</text></g><g class="dcg-svg-axis-value"><text fill="none" stroke="#ffffff" font-family="Arial" font-size="20px" font-style="normal" font-weight="normal" text-decoration="normal" x="222.253521126763" y="145.79211267605677" text-anchor="middle" stroke-miterlimit="2" stroke-width="3" stroke-dasharray="">5</text><text fill="#000000" stroke="none" font-family="Arial" font-size="20px" font-style="normal" font-weight="normal" text-decoration="normal" x="222.253521126763" y="145.79211267605677" text-anchor="middle">5</text></g><g class="dcg-svg-axis-value"><text fill="none" stroke="#ffffff" font-family="Arial" font-size="20px" font-style="normal" font-weight="normal" text-decoration="normal" x="11.891666412353516" y="330.7921126760562" text-anchor="middle" stroke-miterlimit="2" stroke-width="3" stroke-dasharray="">-5</text><text fill="rgb(150,150,150)" stroke="none" font-family="Arial" font-size="20px" font-style="normal" font-weight="normal" text-decoration="normal" x="11.891666412353516" y="330.7921126760562" text-anchor="middle" fill-opacity="1">-5</text></g></g></g></g><g id="expressions-489d7096"><g id="sketch-489d7096"><title>Expression 1</title><path fill="#c74440" stroke="none" paint-order="stroke fill markers" d="" fill-opacity="0.4"/><g><path fill="none" stroke="#c74440" class="dcg-svg-curve" paint-order="fill stroke markers" d=" M 174.64574138127665 408 L 174.64574138127665 408 L 175.5859375 395.9189012135087 L 177.734375 370.79258073337746 L 179.88281250000003 347.97803117552775 L 181.93359375000003 328.25455000854305 L 183.984375 310.43877261980583 L 185.9375 295.1561894106002 L 187.89062500000003 281.432120749414 L 189.74609375000003 269.7614861995665 L 191.6015625 259.34990001086675 L 193.35937500000003 250.58255829559715 L 195.11718749999997 242.81961838460387 L 196.77734374999997 236.35513721220693 L 198.43749999999997 230.68057896095445 L 200.09765625 225.74446826799416 L 201.66015625 221.72718457184482 L 203.22265625000003 218.27551453503028 L 204.78515625 215.34654281331257 L 206.34765625000003 212.89735406245305 L 207.91015624999997 210.88503293821373 L 209.47265625 209.26666409635612 L 211.1328125 207.9307998370636 L 212.98828125 206.84343416252585 L 214.84375 206.1149214032704 L 216.796875 205.65674686461273 L 219.04296875000003 205.4141624995091 L 222.4609375 205.3520959447298 L 226.3671875 205.22158924788874 L 228.51562500000003 204.891684307875 L 230.37109375000003 204.34916143488027 L 232.12890624999997 203.5463386738031 L 233.7890625 202.4739508046408 L 235.546875 200.9475279347314 L 237.109375 199.20467508084045 L 238.671875 197.0537940138784 L 240.13671875 194.62860666252422 L 241.6015625 191.77172104624867 L 243.06640624999997 188.44777601104684 L 244.62890625000003 184.34758938978402 L 246.19140625 179.6328444613034 L 247.75390625 174.26062588136674 L 249.4140625 167.78424559395285 L 251.07421875 160.46571642901623 L 252.73437500000003 152.25356302370432 L 254.4921875 142.52711578112098 L 256.25 131.68000643173286 L 258.10546875 118.94698188745508 L 259.9609375 104.82537204001494 L 261.9140625 88.38138642461615 L 263.8671875 70.23535502350825 L 265.91796875 49.25848153871061 L 267.96875 26.215661086112902 L 270.1171875 -0.2460172214230738 L 270.6926833078412 -8" stroke-linecap="round" stroke-linejoin="round" stroke-miterlimit="10" stroke-width="5" stroke-opacity="0.9" stroke-dasharray=""/></g></g></g><g id="labels-489d7096"/></g></svg>