<svg version="1.1" xmlns="http://www.w3.org/2000/svg" xmlns:xlink="http://www.w3.org/1999/xlink" width="800" height="800"><defs/><g transform="scale(2,2)"><g id="background-5894109a"><rect fill="white" stroke="none" x="0" y="0" width="400" height="400" class="dcg-svg-background"/></g><g id="background-images-5894109a"/><g id="graphpaper-5894109a"><g id="grid-5894109a"><g><path fill="none" stroke="rgb(0,0,0)" class="dcg-svg-minor-gridline" paint-order="fill stroke markers" d=" M 38.5 0 L 38.5 400" stroke-opacity="0.5" stroke-miterlimit="10" stroke-dasharray=""/><path fill="none" stroke="rgb(0,0,0)" class="dcg-svg-minor-gridline" paint-order="fill stroke markers" d=" M 74.5 0 L 74.5 400" stroke-opacity="0.5" stroke-miterlimit="10" stroke-dasharray=""/><path fill="none" stroke="rgb(0,0,0)" class="dcg-svg-minor-gridline" paint-order="fill stroke markers" d=" M 109.5 0 L 109.5 400" stroke-opacity="0.5" stroke-miterlimit="10" stroke-dasharray=""/><path fill="none" stroke="rgb(0,0,0)" class="dcg-svg-minor-gridline" paint-order="fill stroke markers" d=" M 145.5 0 L 145.5 400" stroke-opacity="0.5" stroke-miterlimit="10" stroke-dasharray=""/><path fill="none" stroke="rgb(0,0,0)" class="dcg-svg-minor-gridline" paint-order="fill stroke markers" d=" M 180.5 0 L 180.5 400" stroke-opacity="0.5" stroke-miterlimit="10" stroke-dasharray=""/><path fill="none" stroke="rgb(0,0,0)" class="dcg-svg-minor-gridline" paint-order="fill stroke markers" d=" M 216.5 0 L 216.5 400" stroke-opacity="0.5" stroke-miterlimit="10" stroke-dasharray=""/><path fill="none" stroke="rgb(0,0,0)" class="dcg-svg-minor-gridline" paint-order="fill stroke markers" d=" M 251.5 0 L 251.5 400" stroke-opacity="0.5" stroke-miterlimit="10" stroke-dasharray=""/><path fill="none" stroke="rgb(0,0,0)" class="dcg-svg-minor-gridline" paint-order="fill stroke markers" d=" M 286.5 0 L 286.5 400" stroke-opacity="0.5" stroke-miterlimit="10" stroke-dasharray=""/><path fill="none" stroke="rgb(0,0,0)" class="dcg-svg-minor-gridline" paint-order="fill stroke markers" d=" M 322.5 0 L 322.5 400" stroke-opacity="0.5" stroke-miterlimit="10" stroke-dasharray=""/><path fill="none" stroke="rgb(0,0,0)" class="dcg-svg-minor-gridline" paint-order="fill stroke markers" d=" M 357.5 0 L 357.5 400" stroke-opacity="0.5" stroke-miterlimit="10" stroke-dasharray=""/><path fill="none" stroke="rgb(0,0,0)" class="dcg-svg-minor-gridline" paint-order="fill stroke markers" d=" M 393.5 0 L 393.5 400" stroke-opacity="0.5" stroke-miterlimit="10" stroke-dasharray=""/><path fill="none" stroke="rgb(0,0,0)" class="dcg-svg-minor-gridline" paint-order="fill stroke markers" d=" M 0 380.5 L 400 380.5" stroke-opacity="0.5" stroke-miterlimit="10" stroke-dasharray=""/><path fill="none" stroke="rgb(0,0,0)" class="dcg-svg-minor-gridline" paint-order="fill stroke markers" d=" M 0 363.5 L 400 363.5" stroke-opacity="0.5" stroke-miterlimit="10" stroke-dasharray=""/><path fill="none" stroke="rgb(0,0,0)" class="dcg-svg-minor-gridline" paint-order="fill stroke markers" d=" M 0 346.5 L 400 346.5" stroke-opacity="0.5" stroke-miterlimit="10" stroke-dasharray=""/><path fill="none" stroke="rgb(0,0,0)" class="dcg-svg-minor-gridline" paint-order="fill stroke markers" d=" M 0 329.5 L 400 329.5" stroke-opacity="0.5" stroke-miterlimit="10" stroke-dasharray=""/><path fill="none" stroke="rgb(0,0,0)" class="dcg-svg-minor-gridline" paint-order="fill stroke markers" d=" M 0 312.5 L 400 312.5" stroke-opacity="0.5" stroke-miterlimit="10" stroke-dasharray=""/><path fill="none" stroke="rgb(0,0,0)" class="dcg-svg-minor-gridline" paint-order="fill stroke markers" d=" M 0 295.5 L 400 295.5" stroke-opacity="0.5" stroke-miterlimit="10" stroke-dasharray=""/><path fill="none" stroke="rgb(0,0,0)" class="dcg-svg-minor-gridline" paint-order="fill stroke markers" d=" M 0 278.5 L 400 278.5" stroke-opacity="0.5" stroke-miterlimit="10" stroke-dasharray=""/><path fill="none" stroke="rgb(0,0,0)" class="dcg-svg-minor-gridline" paint-order="fill stroke markers" d=" M 0 261.5 L 400 261.5" stroke-opacity="0.5" stroke-miterlimit="10" stroke-dasharray=""/><path fill="none" stroke="rgb(0,0,0)" class="dcg-svg-minor-gridline" paint-order="fill stroke markers" d=" M 0 244.5 L 400 244.5" stroke-opacity="0.5" stroke-miterlimit="10" stroke-dasharray=""/><path fill="none" stroke="rgb(0,0,0)" class="dcg-svg-minor-gridline" paint-order="fill stroke markers" d=" M 0 227.5 L 400 227.5" stroke-opacity="0.5" stroke-miterlimit="10" stroke-dasharray=""/><path fill="none" stroke="rgb(0,0,0)" class="dcg-svg-minor-gridline" paint-order="fill stroke markers" d=" M 0 210.5 L 400 210.5" stroke-opacity="0.5" stroke-miterlimit="10" stroke-dasharray=""/><path fill="none" stroke="rgb(0,0,0)" class="dcg-svg-minor-gridline" paint-order="fill stroke markers" d=" M 0 193.5 L 400 193.5" stroke-opacity="0.5" stroke-miterlimit="10" stroke-dasharray=""/><path fill="none" stroke="rgb(0,0,0)" class="dcg-svg-minor-gridline" paint-order="fill stroke markers" d=" M 0 176.5 L 400 176.5" stroke-opacity="0.5" stroke-miterlimit="10" stroke-dasharray=""/><path fill="none" stroke="rgb(0,0,0)" class="dcg-svg-minor-gridline" paint-order="fill stroke markers" d=" M 0 159.5 L 400 159.5" stroke-opacity="0.5" stroke-miterlimit="10" stroke-dasharray=""/><path fill="none" stroke="rgb(0,0,0)" class="dcg-svg-minor-gridline" paint-order="fill stroke markers" d=" M 0 142.5 L 400 142.5" stroke-opacity="0.5" stroke-miterlimit="10" stroke-dasharray=""/><path fill="none" stroke="rgb(0,0,0)" class="dcg-svg-minor-gridline" paint-order="fill stroke markers" d=" M 0 125.5 L 400 125.5" stroke-opacity="0.5" stroke-miterlimit="10" stroke-dasharray=""/><path fill="none" stroke="rgb(0,0,0)" class="dcg-svg-minor-gridline" paint-order="fill stroke markers" d=" M 0 108.5 L 400 108.5" stroke-opacity="0.5" stroke-miterlimit="10" stroke-dasharray=""/><path fill="none" stroke="rgb(0,0,0)" class="dcg-svg-minor-gridline" paint-order="fill stroke markers" d=" M 0 91.5 L 400 91.5" stroke-opacity="0.5" stroke-miterlimit="10" stroke-dasharray=""/><path fill="none" stroke="rgb(0,0,0)" class="dcg-svg-minor-gridline" paint-order="fill stroke markers" d=" M 0 74.5 L 400 74.5" stroke-opacity="0.5" stroke-miterlimit="10" stroke-dasharray=""/><path fill="none" stroke="rgb(0,0,0)" class="dcg-svg-minor-gridline" paint-order="fill stroke markers" d=" M 0 57.5 L 400 57.5" stroke-opacity="0.5" stroke-miterlimit="10" stroke-dasharray=""/><path fill="none" stroke="rgb(0,0,0)" class="dcg-svg-minor-gridline" paint-order="fill stroke markers" d=" M 0 40.5 L 400 40.5" stroke-opacity="0.5" stroke-miterlimit="10" stroke-dasharray=""/><path fill="none" stroke="rgb(0,0,0)" class="dcg-svg-minor-gridline" paint-order="fill stroke markers" d=" M 0 23.5 L 400 23.5" stroke-opacity="0.5" stroke-miterlimit="10" stroke-dasharray=""/><path fill="none" stroke="rgb(0,0,0)" class="dcg-svg-minor-gridline" paint-order="fill stroke markers" d=" M 0 6.5 L 400 6.5" stroke-opacity="0.5" stroke-miterlimit="10" stroke-dasharray=""/><path fill="none" stroke="rgb(0,0,0)" class="dcg-svg-major-gridline" paint-order="fill stroke markers" d=" M 180.5 0 L 180.5 400" stroke-opacity="1" stroke-miterlimit="10" stroke-dasharray=""/><path fill="none" stroke="rgb(0,0,0)" class="dcg-svg-major-gridline" paint-order="fill stroke markers" d=" M 357.5 0 L 357.5 400" stroke-opacity="1" stroke-miterlimit="10" stroke-dasharray=""/><path fill="none" stroke="rgb(0,0,0)" class="dcg-svg-major-gridline" paint-order="fill stroke markers" d=" M 0 313 L 400 313" stroke-opacity="1" stroke-miterlimit="10" stroke-dasharray=""/><path fill="none" stroke="rgb(0,0,0)" class="dcg-svg-major-gridline" paint-order="fill stroke markers" d=" M 0 228 L 400 228" stroke-opacity="1" stroke-miterlimit="10" stroke-dasharray=""/><path fill="none" stroke="rgb(0,0,0)" class="dcg-svg-major-gridline" paint-order="fill stroke markers" d=" M 0 143 L 400 143" stroke-opacity="1" stroke-miterlimit="10" stroke-dasharray=""/><path fill="none" stroke="rgb(0,0,0)" class="dcg-svg-major-gridline" paint-order="fill stroke markers" d=" M 0 58 L 400 58" stroke-opacity="1" stroke-miterlimit="10" stroke-dasharray=""/></g></g><g id="axis-5894109a"><g id="yaxis-5894109a"><title>Y axis</title><path fill="none" stroke="rgb(0,0,0)" class="dcg-svg-axis-line" paint-order="fill stroke markers" d=" M 4 0 L 4 400" stroke-opacity="0.9" stroke-miterlimit="10" stroke-width="2" stroke-dasharray=""/></g><g id="xaxis-5894109a"><title>X axis</title><path fill="none" stroke="rgb(0,0,0)" class="dcg-svg-axis-line" paint-order="fill stroke markers" d=" M 0 398 L 400 398" stroke-opacity="0.9" stroke-miterlimit="10" stroke-width="2" stroke-dasharray=""/></g><g><g class="dcg-svg-axis-value"><text fill="none" stroke="#ffffff" font-family="Arial" font-size="20px" font-style="normal" font-weight="normal" text-decoration="normal" x="-7.043082008898926" y="418.0233529769795" text-anchor="middle" stroke-miterlimit="2" stroke-width="3" stroke-dasharray="">0</text><text fill="#000000" stroke="none" font-family="Arial" font-size="20px" font-style="normal" font-weight="normal" text-decoration="normal" x="-7.043082008898926" y="418.0233529769795" text-anchor="middle">0</text></g><g class="dcg-svg-axis-value"><text fill="none" stroke="#ffffff" font-family="Arial" font-size="20px" font-style="normal" font-weight="normal" text-decoration="normal" x="180.598584721346" y="392.44" text-anchor="middle" stroke-miterlimit="2" stroke-width="3" stroke-dasharray="">5</text><text fill="rgb(150,150,150)" stroke="none" font-family="Arial" font-size="20px" font-style="normal" font-weight="normal" text-decoration="normal" x="180.598584721346" y="392.44" text-anchor="middle" fill-opacity="1">5</text></g><g class="dcg-svg-axis-value"><text fill="none" stroke="#ffffff" font-family="Arial" font-size="20px" font-style="normal" font-weight="normal" text-decoration="normal" x="357.6819180546793" y="392.44" text-anchor="middle" stroke-miterlimit="2" stroke-width="3" stroke-dasharray="">10</text><text fill="rgb(150,150,150)" stroke="none" font-family="Arial" font-size="20px" font-style="normal" font-weight="normal" text-decoration="normal" x="357.6819180546793" y="392.44" text-anchor="middle" fill-opacity="1">10</text></g><g class="dcg-svg-axis-value"><text fill="none" stroke="#ffffff" font-family="Arial" font-size="20px" font-style="normal" font-weight="normal" text-decoration="normal" x="14.116666793823242" y="318.02335297697954" text-anchor="middle" stroke-miterlimit="2" stroke-width="3" stroke-dasharray="">10</text><text fill="rgb(150,150,150)" stroke="none" font-family="Arial" font-size="20px" font-style="normal" font-weight="normal" text-decoration="normal" x="14.116666793823242" y="318.02335297697954" text-anchor="middle" fill-opacity="1">10</text></g><g class="dcg-svg-axis-value"><text fill="none" stroke="#ffffff" font-family="Arial" font-size="20px" font-style="normal" font-weight="normal" text-decoration="normal" x="14.116666793823242" y="233.02335297697954" text-anchor="middle" stroke-miterlimit="2" stroke-width="3" stroke-dasharray="">20</text><text fill="rgb(150,150,150)" stroke="none" font-family="Arial" font-size="20px" font-style="normal" font-weight="normal" text-decoration="normal" x="14.116666793823242" y="233.02335297697954" text-anchor="middle" fill-opacity="1">20</text></g><g class="dcg-svg-axis-value"><text fill="none" stroke="#ffffff" font-family="Arial" font-size="20px" font-style="normal" font-weight="normal" text-decoration="normal" x="14.116666793823242" y="148.0233529769796" text-anchor="middle" stroke-miterlimit="2" stroke-width="3" stroke-dasharray="">30</text><text fill="rgb(150,150,150)" stroke="none" font-family="Arial" font-size="20px" font-style="normal" font-weight="normal" text-decoration="normal" x="14.116666793823242" y="148.0233529769796" text-anchor="middle" fill-opacity="1">30</text></g><g class="dcg-svg-axis-value"><text fill="none" stroke="#ffffff" font-family="Arial" font-size="20px" font-style="normal" font-weight="normal" text-decoration="normal" x="14.116666793823242" y="63.023352976979595" text-anchor="middle" stroke-miterlimit="2" stroke-width="3" stroke-dasharray="">40</text><text fill="rgb(150,150,150)" stroke="none" font-family="Arial" font-size="20px" font-style="normal" font-weight="normal" text-decoration="normal" x="14.116666793823242" y="63.023352976979595" text-anchor="middle" fill-opacity="1">40</text></g></g></g></g><g id="expressions-5894109a"><g id="sketch-5894109a"><title>Expression 3</title><path fill="#2d70b3" stroke="none" paint-order="stroke fill markers" d="" fill-opacity="0.4"/><g><path fill="none" stroke="#2d70b3" class="dcg-svg-curve" paint-order="fill stroke markers" d=" M 0 326.5248130204376 L 0 326.5248130204376 L 4.003906249999999 312.0440782940794 L 8.007812499999998 298.26776493219376 L 11.9140625 285.4929355590989 L 15.820312499999998 273.36225730991976 L 19.628906249999996 262.14262944200914 L 23.33984375 251.77630048562384 L 27.050781249999996 241.95699739456143 L 30.6640625 232.9111024324416 L 34.1796875 224.58753878250155 L 37.69531249999999 216.72571136328636 L 41.11328125 209.51594096867478 L 44.53125 202.7249427484549 L 47.8515625 196.5207081839156 L 51.07421874999999 190.8614508755012 L 54.296874999999986 185.55190881789966 L 57.42187499999999 180.7303402155063 L 60.44921874999999 176.36020543290869 L 63.47656249999999 172.2799395937785 L 66.40625 168.60158889711832 L 69.23828125 165.29335342790623 L 72.0703125 162.22341513027533 L 74.80468749999999 159.48080281614943 L 77.44140625 157.03798093737873 L 80.078125 154.78928141803655 L 82.61718749999999 152.80360558748785 L 85.05859374999999 151.05723860117163 L 87.49999999999999 149.46739705118694 L 89.84374999999999 148.0854619144599 L 92.08984374999999 146.89112707696907 L 94.33593749999999 145.82153807613992 L 96.48437499999999 144.91290183157165 L 98.63281249999999 144.11397532975917 L 100.68359374999999 143.45171929668038 L 102.73437499999997 142.88557387462203 L 104.78515625 142.41365776062156 L 106.83593749999999 142.034089651717 L 108.98437499999999 141.73344602154026 L 111.42578124999999 141.5095802688325 L 114.453125 141.40140812289525 L 118.06640625 141.50992118043348 L 121.19140625 141.8048275832379 L 123.73046874999999 142.1769049580647 L 126.07421874999999 142.62244000733563 L 128.41796874999997 143.16308465808316 L 130.76171875 143.7960306679845 L 133.203125 144.5504720749958 L 135.7421875 145.4346894627209 L 138.37890625 146.45662122062393 L 141.11328125 147.6237843184424 L 143.9453125 148.94319203346362 L 146.97265625 150.47245698598724 L 150.09765625 152.17360633146248 L 153.41796875 154.11012136254485 L 156.93359375 156.2967619717435 L 160.64453125 158.74659668467217 L 164.6484375 161.54046138428532 L 168.9453125 164.69710006571768 L 173.53515625 168.230930088001 L 178.61328124999997 172.3107250336973 L 184.27734374999997 177.03806769588613 L 190.8203125 182.68086208501848 L 199.31640624999997 190.20290009889246 L 222.36328125 210.70944587745836 L 229.00390625 216.37209707170342 L 234.66796875 221.02546518092632 L 239.74609375 225.02479969999376 L 244.3359375 228.47440481943332 L 248.53515625 231.47443860827028 L 252.53906249999997 234.18084368916183 L 256.25 236.54250298919905 L 259.765625 238.63929483887216 L 263.0859375 240.4853116812814 L 266.2109375 242.0962804421192 L 269.140625 243.4891481189091 L 271.97265625 244.722305622402 L 274.70703125 245.8025719553823 L 277.34375 246.73734152129882 L 279.8828125 247.5344988044025 L 282.32421874999994 248.20233609702106 L 284.66796874999994 248.7494742739745 L 287.01171875000006 249.20169765523744 L 289.35546875 249.5561979984874 L 291.79687499999994 249.81852596234697 L 294.62890624999994 249.98197809540918 L 298.24218749999994 249.96335967018916 L 301.85546875 249.68049762756308 L 304.19921874999994 249.3508717694598 L 306.34765625 248.94484522417198 L 308.3984375 248.46254406069056 L 310.44921875 247.88580439391006 L 312.5 247.212744920868 L 314.55078125 246.44148433860215 L 316.69921874999994 245.52612040510056 L 318.84765625 244.49875239521373 L 321.09375000000006 243.3025815949959 L 323.33984374999994 241.97915730834376 L 325.68359375 240.45984657538008 L 328.02734374999994 238.7964768060805 L 330.46874999999994 236.90758451559347 L 333.00781249999994 234.77067419436077 L 335.546875 232.4543952611996 L 338.18359375 229.85535169663163 L 340.91796874999994 226.94739447161183 L 343.65234374999994 223.81851174769548 L 346.484375 220.34022443219035 L 349.41406249999994 216.48230215839953 L 352.34375 212.35486036921193 L 355.37109375 207.8008658012281 L 358.3984375 202.94717586582607 L 361.5234375 197.61614654863106 L 364.74609374999994 191.77025659435665 L 367.96875 185.56351613881878 L 371.2890625 178.783561517958 L 374.70703125000006 171.38756336110052 L 378.12499999999994 163.56026715124628 L 381.64062499999994 155.05020250748973 L 385.15625 146.06514976470362 L 388.76953124999994 136.3255818706278 L 392.48046874999994 125.77928701051974 L 396.19140625 114.67120108614438 L 400 102.67494318168531" stroke-linecap="round" stroke-linejoin="round" stroke-miterlimit="10" stroke-width="5" stroke-opacity="0.9" stroke-dasharray=""/></g></g></g><g id="labels-5894109a"/></g></svg>